<?xml version="1.0" encoding="UTF-8"?>
<svg version="1.1" xmlns="http://www.w3.org/2000/svg" width="1536" height="799">
<path d="M0 0 C1.08684082 0.00499512 2.17368164 0.00999023 3.29345703 0.01513672 C20.12631149 0.37710675 36.45234898 6.71854667 48.75 18.5 C48.75 19.16 48.75 19.82 48.75 20.5 C50.235 20.995 50.235 20.995 51.75 21.5 C65.74548617 35.73421515 70.00710016 53.2506224 69.9987793 72.51342773 C69.91362014 79.55713178 69.15161825 85.83744615 66.75 92.5 C66.4096875 93.49 66.069375 94.48 65.71875 95.5 C62.85906975 103.07428822 58.76706409 109.18627919 53.75 115.5 C53.09644531 116.35078125 52.44289063 117.2015625 51.76953125 118.078125 C42.36991144 129.35039634 26.98432132 136.70612306 12.75 139.5 C11.595 139.726875 10.44 139.95375 9.25 140.1875 C-11.16884078 142.01061078 -29.2059931 136.80142083 -45.296875 124.09375 C-60.07359717 111.62962113 -68.50368325 94.78224748 -70.25 75.5 C-71.74486163 57.05447523 -65.80707928 39.20697046 -54.18359375 24.96875 C-39.9079787 8.48351802 -21.87291487 -0.1336012 0 0 Z " fill="#8790FD" transform="translate(471.25,329.5)"/>
<path d="M0 0 C7.30125 -0.061875 14.6025 -0.12375 22.125 -0.1875 C24.41969238 -0.21481201 26.71438477 -0.24212402 29.07861328 -0.27026367 C30.90917434 -0.27903027 32.73974127 -0.2866738 34.5703125 -0.29296875 C35.98171509 -0.3159906 35.98171509 -0.3159906 37.42163086 -0.33947754 C43.68343893 -0.34196436 47.68133724 0.59639196 52.84790039 4.33837891 C55.50788744 8.17475777 54.4652908 13.88804826 54.4375 18.375 C54.4674707 20.08042969 54.4674707 20.08042969 54.49804688 21.8203125 C54.49319377 30.09000694 54.49319377 30.09000694 52.28515625 34.1640625 C47.57904698 37.94503918 43.45207149 38.24264599 37.51171875 38.1953125 C36.80852005 38.1924826 36.10532135 38.18965271 35.3808136 38.18673706 C33.14953108 38.17560151 30.91865983 38.15050997 28.6875 38.125 C27.16862562 38.1149616 25.6497449 38.10583726 24.13085938 38.09765625 C20.42028956 38.07739099 16.71060152 38.03823173 13 38 C13 43.61 13 49.22 13 55 C8.71 55 4.42 55 0 55 C0 36.85 0 18.7 0 0 Z M13 13 C13 16.63 13 20.26 13 24 C22.24 24 31.48 24 41 24 C41 20.37 41 16.74 41 13 C31.76 13 22.52 13 13 13 Z " fill="#000000" transform="translate(549,381)"/>
<path d="M0 0 C1.65196884 0.00636726 1.65196884 0.00636726 3.33731079 0.01286316 C6.84231383 0.02960725 10.34673429 0.06725261 13.8515625 0.10546875 C16.23306459 0.12052106 18.61457573 0.13420851 20.99609375 0.14648438 C26.82311422 0.17949682 32.64979673 0.22965411 38.4765625 0.29296875 C38.52225215 2.21983112 38.55491367 4.14700554 38.58203125 6.07421875 C38.60160889 7.14736328 38.62118652 8.22050781 38.64135742 9.32617188 C38.34895026 14.59036725 35.75202798 17.115616 32.0390625 20.54296875 C27.70897624 23.50010083 24.18959364 24.54674563 18.95703125 24.48828125 C17.4246582 24.47861328 17.4246582 24.47861328 15.86132812 24.46875 C14.80623047 24.45199219 13.75113281 24.43523437 12.6640625 24.41796875 C11.58962891 24.40894531 10.51519531 24.39992188 9.40820312 24.390625 C6.76409396 24.36712181 4.12044378 24.3342645 1.4765625 24.29296875 C1.47398437 25.13859375 1.47140625 25.98421875 1.46875 26.85546875 C1.23957097 33.5780536 0.8428288 38.5649546 -3.73046875 43.703125 C-8.42100736 47.86227362 -12.49286396 49.51139595 -18.7890625 49.38671875 C-19.67883789 49.37318359 -20.56861328 49.35964844 -21.48535156 49.34570312 C-22.15791992 49.32830078 -22.83048828 49.31089844 -23.5234375 49.29296875 C-23.57314237 44.57903554 -23.6093005 39.86525735 -23.63330078 35.15112305 C-23.64331373 33.54985901 -23.6569281 31.94861304 -23.67431641 30.34741211 C-23.69877315 28.03624999 -23.70996779 25.72533113 -23.71875 23.4140625 C-23.72907257 22.706483 -23.73939514 21.9989035 -23.75003052 21.2698822 C-23.75132034 15.46229832 -22.91542987 10.48038533 -19.7734375 5.54296875 C-13.87733857 -0.35313018 -7.85678668 -0.11447344 0 0 Z " fill="#FCFCFD" transform="translate(470.5234375,392.70703125)"/>
<path d="M0 0 C0.75884491 -0.00807175 1.51768982 -0.01614349 2.29953003 -0.02445984 C3.91190291 -0.03832129 5.5243054 -0.04903418 7.13671875 -0.05688477 C9.58651899 -0.07400443 12.03493659 -0.11785731 14.484375 -0.16210938 C16.05207342 -0.17224445 17.61978332 -0.180758 19.1875 -0.1875 C19.91381622 -0.20500809 20.64013245 -0.22251617 21.38845825 -0.24055481 C26.84531387 -0.21764937 30.07741002 0.96614806 34.4921875 4.23828125 C37.62774353 8.73755656 37.91311307 12.89306553 37.8203125 18.2265625 C37.81843933 18.97036667 37.81656616 19.71417084 37.81463623 20.48051453 C37.80795014 22.04117362 37.79410472 23.60181695 37.7734375 25.16235352 C37.74205555 27.56086652 37.73243986 29.95872313 37.7265625 32.35742188 C37.7174007 33.87631017 37.70702757 35.39519175 37.6953125 36.9140625 C37.68893768 37.99364983 37.68893768 37.99364983 37.68243408 39.095047 C37.60941086 44.12105789 37.60941086 44.12105789 36.4921875 45.23828125 C31.3296022 45.55533415 26.1645069 45.59524794 20.99316406 45.64331055 C19.25305254 45.66482736 17.5130474 45.69885525 15.7734375 45.74584961 C13.25992678 45.81314158 10.74866175 45.84036033 8.234375 45.859375 C7.46431122 45.88720566 6.69424744 45.91503632 5.90084839 45.94371033 C0.50881176 45.92341181 -2.23927765 44.46724927 -6.18624878 40.82191467 C-8.52724514 38.01669233 -8.63552738 35.3219158 -8.640625 31.82421875 C-8.64191406 30.98117187 -8.64320313 30.138125 -8.64453125 29.26953125 C-8.64066406 28.39296875 -8.63679687 27.51640625 -8.6328125 26.61328125 C-8.63667969 25.72898437 -8.64054688 24.8446875 -8.64453125 23.93359375 C-8.64324219 23.093125 -8.64195312 22.25265625 -8.640625 21.38671875 C-8.63949707 20.61505371 -8.63836914 19.84338867 -8.63720703 19.04833984 C-8.5078125 17.23828125 -8.5078125 17.23828125 -7.5078125 16.23828125 C-5.21629833 16.1503715 -2.92208726 16.13134087 -0.62890625 16.140625 C0.40108742 16.14274742 0.40108742 16.14274742 1.45188904 16.14491272 C3.65286551 16.15052646 5.85374159 16.16308118 8.0546875 16.17578125 C9.54361833 16.18079449 11.03255074 16.1853577 12.52148438 16.18945312 C16.17841825 16.20050032 19.83529308 16.21777412 23.4921875 16.23828125 C23.4921875 15.57828125 23.4921875 14.91828125 23.4921875 14.23828125 C22.55834229 14.24351807 21.62449707 14.24875488 20.66235352 14.25415039 C17.20905954 14.27115745 13.75580983 14.28371427 10.30249023 14.29321289 C8.80573832 14.29825246 7.30899134 14.30508412 5.81225586 14.3137207 C3.66518943 14.32580284 1.51818788 14.33151316 -0.62890625 14.3359375 C-2.56914673 14.34379272 -2.56914673 14.34379272 -4.54858398 14.35180664 C-7.5078125 14.23828125 -7.5078125 14.23828125 -8.5078125 13.23828125 C-8.60655066 11.24028553 -8.63753049 9.23870967 -8.6328125 7.23828125 C-8.63539063 6.14515625 -8.63796875 5.05203125 -8.640625 3.92578125 C-8.37701467 -1.40845121 -4.33751851 0.04338879 0 0 Z M5.4921875 28.23828125 C5.4921875 29.22828125 5.4921875 30.21828125 5.4921875 31.23828125 C11.4321875 31.23828125 17.3721875 31.23828125 23.4921875 31.23828125 C23.4921875 30.24828125 23.4921875 29.25828125 23.4921875 28.23828125 C17.5521875 28.23828125 11.6121875 28.23828125 5.4921875 28.23828125 Z " fill="#000000" transform="translate(1018.5078125,390.76171875)"/>
<path d="M0 0 C1.50046875 0.00386719 1.50046875 0.00386719 3.03125 0.0078125 C4.0315625 0.00523437 5.031875 0.00265625 6.0625 0 C8.53125 0.1328125 8.53125 0.1328125 9.53125 1.1328125 C9.62501053 2.94336275 9.6486911 4.75758451 9.64477539 6.57055664 C9.64469986 7.73168472 9.64462433 8.89281281 9.64454651 10.08912659 C9.63938522 11.3526445 9.63422394 12.61616241 9.62890625 13.91796875 C9.6274913 15.20392441 9.62607635 16.48988007 9.62461853 17.81480408 C9.62079418 21.23924693 9.61096462 24.66364759 9.59991455 28.08807373 C9.58969864 31.58019439 9.58512053 35.07232184 9.58007812 38.56445312 C9.56934227 45.42059028 9.55226684 52.27669937 9.53125 59.1328125 C4.37180127 59.23201799 -0.78708689 59.30443896 -5.94726562 59.35253906 C-7.70094479 59.3725996 -9.45455753 59.39985501 -11.20800781 59.43457031 C-13.73519318 59.48333552 -16.26149091 59.50583642 -18.7890625 59.5234375 C-19.56742462 59.54408264 -20.34578674 59.56472778 -21.1477356 59.58599854 C-26.36554628 59.58812794 -29.3772894 58.65878667 -33.46875 55.1328125 C-36.86793575 50.52081196 -35.80242432 44.18039361 -35.78442383 38.71557617 C-35.78126524 36.7050141 -35.80473616 34.6959271 -35.83007812 32.68554688 C-35.83072266 31.41130859 -35.83136719 30.13707031 -35.83203125 28.82421875 C-35.83501221 27.66092041 -35.83799316 26.49762207 -35.84106445 25.29907227 C-35.42777929 21.78438686 -34.59428177 19.93731625 -32.46875 17.1328125 C-26.50651389 13.52099798 -20.85574992 13.77214692 -14.03125 13.9453125 C-13.01353516 13.95884766 -11.99582031 13.97238281 -10.94726562 13.98632812 C-8.45386786 14.0214464 -5.96159488 14.07062691 -3.46875 14.1328125 C-3.48035156 13.20597656 -3.49195313 12.27914063 -3.50390625 11.32421875 C-3.51292969 10.12667969 -3.52195312 8.92914063 -3.53125 7.6953125 C-3.54285156 6.50035156 -3.55445313 5.30539062 -3.56640625 4.07421875 C-3.43727936 0.18491693 -3.43727936 0.18491693 0 0 Z M-22.46875 28.1328125 C-22.46875 33.7428125 -22.46875 39.3528125 -22.46875 45.1328125 C-16.19875 45.1328125 -9.92875 45.1328125 -3.46875 45.1328125 C-3.46875 39.5228125 -3.46875 33.9128125 -3.46875 28.1328125 C-9.73875 28.1328125 -16.00875 28.1328125 -22.46875 28.1328125 Z " fill="#000000" transform="translate(847.46875,376.8671875)"/>
<path d="M0 0 C1.74410156 -0.01740234 1.74410156 -0.01740234 3.5234375 -0.03515625 C14.15343672 0.00133116 14.15343672 0.00133116 19 3.375 C22.23474236 6.94437088 23.12953197 10.0747372 23.09765625 14.82421875 C23.09515869 15.58822998 23.09266113 16.35224121 23.09008789 17.1394043 C23.08098389 18.10402588 23.07187988 19.06864746 23.0625 20.0625 C23.041875 23.135625 23.02125 26.20875 23 29.375 C12.44 29.375 1.88 29.375 -9 29.375 C-9 30.035 -9 30.695 -9 31.375 C-7.59923218 31.36714478 -7.59923218 31.36714478 -6.17016602 31.35913086 C-2.71687204 31.3421238 0.73637767 31.32956698 4.18969727 31.32006836 C5.68644918 31.31502879 7.18319616 31.30819713 8.67993164 31.29956055 C10.82699807 31.28747841 12.97399962 31.28176809 15.12109375 31.27734375 C17.06133423 31.26948853 17.06133423 31.26948853 19.04077148 31.26147461 C22 31.375 22 31.375 23 32.375 C23.09873816 34.37299572 23.12971799 36.37457158 23.125 38.375 C23.12886719 40.0146875 23.12886719 40.0146875 23.1328125 41.6875 C23 44.375 23 44.375 22 45.375 C19.40388704 45.51328388 16.83630207 45.58814425 14.23828125 45.61328125 C13.06316231 45.62538887 13.06316231 45.62538887 11.86430359 45.63774109 C10.20065536 45.65160112 8.53697846 45.66231465 6.87329102 45.67016602 C4.34009878 45.68731318 1.80823403 45.73117147 -0.72460938 45.77539062 C-2.34113623 45.78552317 -3.9576742 45.79403751 -5.57421875 45.80078125 C-6.32757004 45.81828934 -7.08092133 45.83579742 -7.85710144 45.85383606 C-13.06270306 45.83259766 -16.05006081 44.75488313 -20 41.375 C-23.39918575 36.76299946 -22.33367432 30.42258111 -22.31567383 24.95776367 C-22.31251524 22.9472016 -22.33598616 20.9381146 -22.36132812 18.92773438 C-22.36197266 17.65349609 -22.36261719 16.37925781 -22.36328125 15.06640625 C-22.36626221 13.90310791 -22.36924316 12.73980957 -22.37231445 11.54125977 C-21.96040765 8.03829628 -21.08593346 6.18955356 -19 3.375 C-13.39774204 -0.84512195 -6.6947506 -0.06679906 0 0 Z M-9 14.375 C-9 15.365 -9 16.355 -9 17.375 C-3.06 17.375 2.88 17.375 9 17.375 C9 16.385 9 15.395 9 14.375 C3.06 14.375 -2.88 14.375 -9 14.375 Z " fill="#000000" transform="translate(768,390.625)"/>
<path d="M0 0 C1.21042969 -0.01998047 2.42085937 -0.03996094 3.66796875 -0.06054688 C11.85485321 -0.05604364 15.6972405 0.6347405 21.5 6.4375 C22.46920037 9.32024981 22.61810424 11.95807268 22.59765625 14.984375 C22.59515869 15.74588867 22.59266113 16.50740234 22.59008789 17.29199219 C22.58098389 18.24750977 22.57187988 19.20302734 22.5625 20.1875 C22.541875 23.24 22.52125 26.2925 22.5 29.4375 C11.94 29.4375 1.38 29.4375 -9.5 29.4375 C-9.5 30.0975 -9.5 30.7575 -9.5 31.4375 C-8.09923218 31.42964478 -8.09923218 31.42964478 -6.67016602 31.42163086 C-3.21687204 31.4046238 0.23637767 31.39206698 3.68969727 31.38256836 C5.18644918 31.37752879 6.68319616 31.37069713 8.17993164 31.36206055 C10.32699807 31.34997841 12.47399962 31.34426809 14.62109375 31.33984375 C16.56133423 31.33198853 16.56133423 31.33198853 18.54077148 31.32397461 C21.5 31.4375 21.5 31.4375 22.5 32.4375 C22.59873816 34.43549572 22.62971799 36.43707158 22.625 38.4375 C22.62886719 40.0771875 22.62886719 40.0771875 22.6328125 41.75 C22.5 44.4375 22.5 44.4375 21.5 45.4375 C18.90388704 45.57578388 16.33630207 45.65064425 13.73828125 45.67578125 C12.56316231 45.68788887 12.56316231 45.68788887 11.36430359 45.70024109 C9.70065536 45.71410112 8.03697846 45.72481465 6.37329102 45.73266602 C3.84009878 45.74981318 1.30823403 45.79367147 -1.22460938 45.83789062 C-2.84113623 45.84802317 -4.4576742 45.85653751 -6.07421875 45.86328125 C-6.82757004 45.88078934 -7.58092133 45.89829742 -8.35710144 45.91633606 C-13.56270306 45.89509766 -16.55006081 44.81738313 -20.5 41.4375 C-23.89918575 36.82549946 -22.83367432 30.48508111 -22.81567383 25.02026367 C-22.81251524 23.0097016 -22.83598616 21.0006146 -22.86132812 18.99023438 C-22.86197266 17.71599609 -22.86261719 16.44175781 -22.86328125 15.12890625 C-22.86626221 13.96560791 -22.86924316 12.80230957 -22.87231445 11.60375977 C-22.44863553 8.00068306 -21.79059289 6.24375555 -19.5 3.4375 C-13.24770172 -0.55647775 -7.18590003 -0.04208994 0 0 Z M-9.5 14.4375 C-9.5 15.4275 -9.5 16.4175 -9.5 17.4375 C-3.23 17.4375 3.04 17.4375 9.5 17.4375 C9.5 16.4475 9.5 15.4575 9.5 14.4375 C3.23 14.4375 -3.04 14.4375 -9.5 14.4375 Z " fill="#000000" transform="translate(629.5,390.5625)"/>
<path d="M0 0 C1.15822266 -0.01998047 2.31644531 -0.03996094 3.50976562 -0.06054688 C14.26134674 -0.05437135 14.26134674 -0.05437135 18.9375 4.4375 C22.94016929 8.96043239 22.28100468 14.04593495 22.125 19.75 C22.0321875 24.5453125 22.0321875 24.5453125 21.9375 29.4375 C11.3775 29.4375 0.8175 29.4375 -10.0625 29.4375 C-10.0625 30.0975 -10.0625 30.7575 -10.0625 31.4375 C-8.66173218 31.42964478 -8.66173218 31.42964478 -7.23266602 31.42163086 C-3.77937204 31.4046238 -0.32612233 31.39206698 3.12719727 31.38256836 C4.62394918 31.37752879 6.12069616 31.37069713 7.61743164 31.36206055 C9.76449807 31.34997841 11.91149962 31.34426809 14.05859375 31.33984375 C15.99883423 31.33198853 15.99883423 31.33198853 17.97827148 31.32397461 C20.9375 31.4375 20.9375 31.4375 21.9375 32.4375 C22.03623816 34.43549572 22.06721799 36.43707158 22.0625 38.4375 C22.06636719 40.0771875 22.06636719 40.0771875 22.0703125 41.75 C21.9375 44.4375 21.9375 44.4375 20.9375 45.4375 C18.34138704 45.57578388 15.77380207 45.65064425 13.17578125 45.67578125 C12.00066231 45.68788887 12.00066231 45.68788887 10.80180359 45.70024109 C9.13815536 45.71410112 7.47447846 45.72481465 5.81079102 45.73266602 C3.27759878 45.74981318 0.74573403 45.79367147 -1.78710938 45.83789062 C-3.40363623 45.84802317 -5.0201742 45.85653751 -6.63671875 45.86328125 C-7.39007004 45.88078934 -8.14342133 45.89829742 -8.91960144 45.91633606 C-14.12520306 45.89509766 -17.11256081 44.81738313 -21.0625 41.4375 C-24.46168575 36.82549946 -23.39617432 30.48508111 -23.37817383 25.02026367 C-23.37501524 23.0097016 -23.39848616 21.0006146 -23.42382812 18.99023438 C-23.42447266 17.71599609 -23.42511719 16.44175781 -23.42578125 15.12890625 C-23.42876221 13.96560791 -23.43174316 12.80230957 -23.43481445 11.60375977 C-23.02178791 8.09127373 -22.18177729 6.24321576 -20.0625 3.4375 C-13.79103009 -0.46190374 -7.20793382 -0.04426983 0 0 Z M-10.0625 14.4375 C-10.0625 15.4275 -10.0625 16.4175 -10.0625 17.4375 C-3.7925 17.4375 2.4775 17.4375 8.9375 17.4375 C8.9375 16.4475 8.9375 15.4575 8.9375 14.4375 C2.6675 14.4375 -3.6025 14.4375 -10.0625 14.4375 Z " fill="#000000" transform="translate(1182.0625,390.5625)"/>
<path d="M0 0 C1.22009766 -0.02900391 2.44019531 -0.05800781 3.69726562 -0.08789062 C10.60320857 -0.13665611 15.29221685 -0.02096131 20.8125 4.3125 C23.11944043 7.77291065 23.43306512 10.21460331 23.8125 14.3125 C22.8125 15.3125 22.8125 15.3125 20.5390625 15.4453125 C10.60817292 15.42029766 0.72411379 14.89861444 -9.1875 14.3125 C-9.1875 14.9725 -9.1875 15.6325 -9.1875 16.3125 C-8.13622925 16.28893433 -8.13622925 16.28893433 -7.0637207 16.26489258 C-3.87589649 16.20237588 -0.68820149 16.16345619 2.5 16.125 C3.60279297 16.09986328 4.70558594 16.07472656 5.84179688 16.04882812 C6.90849609 16.03916016 7.97519531 16.02949219 9.07421875 16.01953125 C10.05350342 16.0038208 11.03278809 15.98811035 12.04174805 15.97192383 C16.14559484 16.47636178 18.78405528 18.20635056 21.5703125 21.203125 C24.12708134 25.54480793 24.27044753 30.70708977 23.41015625 35.6015625 C21.78140641 40.74802649 19.56941792 42.56801722 14.8125 45.3125 C10.0242309 46.12627789 5.22547925 45.96152417 0.375 45.9375 C-0.92244141 45.96972656 -2.21988281 46.00195312 -3.55664062 46.03515625 C-14.18613365 46.04604155 -14.18613365 46.04604155 -18.5390625 42.578125 C-20.93747219 40.01733685 -22.07058729 38.02873918 -22.125 34.4375 C-22.15464844 33.65632813 -22.18429687 32.87515625 -22.21484375 32.0703125 C-22.20582031 31.49023438 -22.19679688 30.91015625 -22.1875 30.3125 C-11.8140501 30.14755115 -1.5364074 30.66206362 8.8125 31.3125 C8.8125 30.6525 8.8125 29.9925 8.8125 29.3125 C8.11165283 29.33344727 7.41080566 29.35439453 6.6887207 29.37597656 C3.50096081 29.45933048 0.31343048 29.51122139 -2.875 29.5625 C-3.97779297 29.59601563 -5.08058594 29.62953125 -6.21679688 29.6640625 C-14.42440773 29.76324813 -14.42440773 29.76324813 -18.375 27.4296875 C-22.32600917 22.81450006 -22.51973694 18.57295284 -22.37109375 12.6796875 C-22.02185011 8.17667371 -21.04539485 6.08460536 -17.6875 3.0625 C-12.16910399 -0.80037721 -6.57335233 0.0512742 0 0 Z " fill="#000000" transform="translate(718.1875,390.6875)"/>
<path d="M0 0 C16.83 0 33.66 0 51 0 C51 4.29 51 8.58 51 13 C38.79 13 26.58 13 14 13 C14 15.64 14 18.28 14 21 C23.9 21 33.8 21 44 21 C44 24.96 44 28.92 44 33 C43 34 43 34 40.22436523 34.11352539 C39.01466064 34.10828857 37.80495605 34.10305176 36.55859375 34.09765625 C35.25341797 34.09443359 33.94824219 34.09121094 32.60351562 34.08789062 C31.2148431 34.07953401 29.82617123 34.07106905 28.4375 34.0625 C27.04492344 34.05748666 25.65234519 34.05292347 24.25976562 34.04882812 C20.8398013 34.03699434 17.41992156 34.0205088 14 34 C14.00523682 34.60062256 14.01047363 35.20124512 14.01586914 35.82006836 C14.03658014 38.52586838 14.04964125 41.23165177 14.0625 43.9375 C14.07087891 44.88302734 14.07925781 45.82855469 14.08789062 46.80273438 C14.09111328 47.70185547 14.09433594 48.60097656 14.09765625 49.52734375 C14.10289307 50.35999756 14.10812988 51.19265137 14.11352539 52.05053711 C14 54 14 54 13 55 C11.00200428 55.09873816 9.00042842 55.12971799 7 55.125 C5.906875 55.12757813 4.81375 55.13015625 3.6875 55.1328125 C1 55 1 55 0 54 C-0.09353163 52.31198015 -0.11744791 50.62004793 -0.11352539 48.92944336 C-0.11344986 47.84839828 -0.11337433 46.76735321 -0.11329651 45.65354919 C-0.10813522 44.4775264 -0.10297394 43.3015036 -0.09765625 42.08984375 C-0.0962413 40.89267227 -0.09482635 39.69550079 -0.09336853 38.46205139 C-0.08774979 34.62050934 -0.07519411 30.77902457 -0.0625 26.9375 C-0.05748741 24.34049563 -0.05292409 21.74349035 -0.04882812 19.14648438 C-0.03862313 12.76428284 -0.01905136 6.3822059 0 0 Z " fill="#000000" transform="translate(887,381)"/>
<path d="M0 0 C0.75884491 -0.00807175 1.51768982 -0.01614349 2.29953003 -0.02445984 C3.91190291 -0.03832129 5.5243054 -0.04903418 7.13671875 -0.05688477 C9.58651899 -0.07400443 12.03493659 -0.11785731 14.484375 -0.16210938 C16.05207342 -0.17224445 17.61978332 -0.180758 19.1875 -0.1875 C19.91381622 -0.20500809 20.64013245 -0.22251617 21.38845825 -0.24055481 C26.84542591 -0.2176489 30.0432408 1.02858114 34.4921875 4.23828125 C37.93471296 8.26654461 37.90554362 12.26257048 37.8203125 17.34765625 C37.81843933 18.11507141 37.81656616 18.88248657 37.81463623 19.67315674 C37.80793896 21.28686908 37.79407087 22.90056583 37.7734375 24.51416016 C37.74211568 26.99396716 37.73244738 29.47313924 37.7265625 31.953125 C37.71739866 33.52214323 37.70702486 35.09115497 37.6953125 36.66015625 C37.68893768 37.77725983 37.68893768 37.77725983 37.68243408 38.91693115 C37.60939074 44.12107801 37.60939074 44.12107801 36.4921875 45.23828125 C34.49419178 45.33701941 32.49261592 45.36799924 30.4921875 45.36328125 C29.3990625 45.36585938 28.3059375 45.3684375 27.1796875 45.37109375 C24.4921875 45.23828125 24.4921875 45.23828125 23.4921875 44.23828125 C23.40435208 42.01972861 23.38524141 39.79839629 23.39453125 37.578125 C23.3959462 36.9136586 23.39736115 36.2491922 23.39881897 35.56459045 C23.40443232 33.43494226 23.41698696 31.30539786 23.4296875 29.17578125 C23.43470079 27.73502756 23.43926399 26.29427222 23.44335938 24.85351562 C23.45355674 21.31503167 23.4731292 17.77677312 23.4921875 14.23828125 C17.5521875 14.23828125 11.6121875 14.23828125 5.4921875 14.23828125 C5.4921875 24.46828125 5.4921875 34.69828125 5.4921875 45.23828125 C1.2021875 45.23828125 -3.0878125 45.23828125 -7.5078125 45.23828125 C-9.03865675 43.707437 -8.63497029 42.32624981 -8.63720703 40.19335938 C-8.64035919 39.33577026 -8.64351135 38.47818115 -8.64675903 37.59460449 C-8.6447348 36.66233032 -8.64271057 35.73005615 -8.640625 34.76953125 C-8.64158173 33.81888794 -8.64253845 32.86824463 -8.64352417 31.88879395 C-8.64420607 29.87459243 -8.64235112 27.86038873 -8.63818359 25.84619141 C-8.63283548 22.7515777 -8.63812827 19.65710915 -8.64453125 16.5625 C-8.64387047 14.61067676 -8.64258931 12.65885361 -8.640625 10.70703125 C-8.64264923 9.77475708 -8.64467346 8.84248291 -8.64675903 7.88195801 C-8.64360687 7.0243689 -8.64045471 6.16677979 -8.63720703 5.28320312 C-8.63641144 4.52454956 -8.63561584 3.765896 -8.63479614 2.98425293 C-8.31742522 -1.37946379 -3.35940888 0.03360463 0 0 Z " fill="#000000" transform="translate(1068.5078125,390.76171875)"/>
<path d="M0 0 C0.76741516 0.00045822 1.53483032 0.00091644 2.32550049 0.00138855 C3.93918413 0.00439816 5.5528652 0.0122456 7.16650391 0.0246582 C9.64626241 0.04301047 12.12564916 0.04516706 14.60546875 0.04492188 C16.17448242 0.04983392 17.74349355 0.05566087 19.3125 0.0625 C20.42960358 0.06416924 20.42960358 0.06416924 21.5692749 0.06587219 C26.77454304 0.11438679 26.77454304 0.11438679 27.890625 1.23046875 C27.98936316 3.22846447 28.02034299 5.23004033 28.015625 7.23046875 C28.01949219 8.87015625 28.01949219 8.87015625 28.0234375 10.54296875 C27.890625 13.23046875 27.890625 13.23046875 26.890625 14.23046875 C24.59911083 14.3183785 22.30489976 14.33740913 20.01171875 14.328125 C18.98172508 14.32600258 18.98172508 14.32600258 17.93092346 14.32383728 C15.72994699 14.31822354 13.52907091 14.30566882 11.328125 14.29296875 C9.83919417 14.28795551 8.35026176 14.2833923 6.86132812 14.27929688 C3.20435695 14.26909896 -0.45239617 14.24952654 -4.109375 14.23046875 C-4.109375 19.84046875 -4.109375 25.45046875 -4.109375 31.23046875 C-1.88316406 31.21886719 0.34304688 31.20726562 2.63671875 31.1953125 C4.78458514 31.18752153 6.93244997 31.181445 9.08032227 31.17553711 C10.57707418 31.17049754 12.07382116 31.16366588 13.57055664 31.1550293 C15.71762307 31.14294716 17.86462462 31.13723684 20.01171875 31.1328125 C21.95195923 31.12495728 21.95195923 31.12495728 23.93139648 31.11694336 C26.890625 31.23046875 26.890625 31.23046875 27.890625 32.23046875 C27.98936316 34.22846447 28.02034299 36.23004033 28.015625 38.23046875 C28.01949219 39.87015625 28.01949219 39.87015625 28.0234375 41.54296875 C27.890625 44.23046875 27.890625 44.23046875 26.890625 45.23046875 C24.29451204 45.36875263 21.72692707 45.443613 19.12890625 45.46875 C17.95378731 45.48085762 17.95378731 45.48085762 16.75492859 45.49320984 C15.09128036 45.50706987 13.42760346 45.5177834 11.76391602 45.52563477 C9.23072378 45.54278193 6.69885903 45.58664022 4.16601562 45.63085938 C2.54948877 45.64099192 0.9329508 45.64950626 -0.68359375 45.65625 C-1.43694504 45.67375809 -2.19029633 45.69126617 -2.96647644 45.70930481 C-8.17831091 45.68804098 -11.11670882 44.55087543 -15.109375 41.23046875 C-18.34475564 36.37739779 -17.48126598 30.71357685 -17.47998047 25.03417969 C-17.48434642 22.86963797 -17.52065161 20.70714874 -17.55859375 18.54296875 C-17.56446388 17.16016319 -17.56843196 15.77734799 -17.5703125 14.39453125 C-17.57853027 13.1410791 -17.58674805 11.88762695 -17.59521484 10.59619141 C-17.01628211 6.58555487 -16.02388279 5.0091282 -13.109375 2.23046875 C-8.94053719 -0.18199432 -4.69376895 -0.0457852 0 0 Z " fill="#000000" transform="translate(1127.109375,390.76953125)"/>
<path d="M0 0 C0.75884491 -0.00807175 1.51768982 -0.01614349 2.29953003 -0.02445984 C3.91190291 -0.03832129 5.5243054 -0.04903418 7.13671875 -0.05688477 C9.58651899 -0.07400443 12.03493659 -0.11785731 14.484375 -0.16210938 C16.05207342 -0.17224445 17.61978332 -0.180758 19.1875 -0.1875 C19.91381622 -0.20500809 20.64013245 -0.22251617 21.38845825 -0.24055481 C26.82898071 -0.21771793 30.08215114 0.99263038 34.4921875 4.23828125 C37.11629177 8.33894984 36.75154428 12.87606301 36.6875 17.6015625 C36.6846701 18.39354538 36.68184021 19.18552826 36.67892456 20.00151062 C36.66777613 22.51809124 36.64268172 25.03430914 36.6171875 27.55078125 C36.60715079 29.26236463 36.59802614 30.97395362 36.58984375 32.68554688 C36.56785431 36.86993031 36.53336158 41.05404439 36.4921875 45.23828125 C32.2021875 45.23828125 27.9121875 45.23828125 23.4921875 45.23828125 C23.4921875 35.00828125 23.4921875 24.77828125 23.4921875 14.23828125 C17.2221875 14.23828125 10.9521875 14.23828125 4.4921875 14.23828125 C4.4921875 24.46828125 4.4921875 34.69828125 4.4921875 45.23828125 C0.5321875 45.23828125 -3.4278125 45.23828125 -7.5078125 45.23828125 C-9.03865675 43.707437 -8.63497029 42.32624981 -8.63720703 40.19335938 C-8.64035919 39.33577026 -8.64351135 38.47818115 -8.64675903 37.59460449 C-8.6447348 36.66233032 -8.64271057 35.73005615 -8.640625 34.76953125 C-8.64158173 33.81888794 -8.64253845 32.86824463 -8.64352417 31.88879395 C-8.64420607 29.87459243 -8.64235112 27.86038873 -8.63818359 25.84619141 C-8.63283548 22.7515777 -8.63812827 19.65710915 -8.64453125 16.5625 C-8.64387047 14.61067676 -8.64258931 12.65885361 -8.640625 10.70703125 C-8.64264923 9.77475708 -8.64467346 8.84248291 -8.64675903 7.88195801 C-8.64360687 7.0243689 -8.64045471 6.16677979 -8.63720703 5.28320312 C-8.63641144 4.52454956 -8.63561584 3.765896 -8.63479614 2.98425293 C-8.31742522 -1.37946379 -3.35940888 0.03360463 0 0 Z " fill="#000000" transform="translate(967.5078125,390.76171875)"/>
<path d="M0 0 C7.11641835 -0.15264302 14.23241169 -0.25742188 21.35009766 -0.32958984 C23.76920345 -0.35968708 26.1882008 -0.40057519 28.60693359 -0.45263672 C32.09239511 -0.52575829 35.57640906 -0.55952867 39.0625 -0.5859375 C40.13677246 -0.61690521 41.21104492 -0.64787292 42.31787109 -0.67977905 C48.76650516 -0.68264291 52.54278353 0.24674732 57.52319336 4.42733765 C59.40737858 6.43382047 60.37043646 8.32435497 61 11 C61.66 11 62.32 11 63 11 C63 15.29 63 19.58 63 24 C56.14984492 24.07433804 49.2999264 24.12869171 42.44946289 24.16479492 C40.12064522 24.17985089 37.79185576 24.20030004 35.46313477 24.22631836 C32.10946679 24.26284133 28.75617482 24.27975871 25.40234375 24.29296875 C24.36665756 24.30845261 23.33097137 24.32393646 22.26390076 24.33988953 C15.57104641 24.34143626 10.26904535 23.86529871 5.0390625 19.28125 C4.57242187 18.6934375 4.10578125 18.105625 3.625 17.5 C3.14289063 16.9121875 2.66078125 16.324375 2.1640625 15.71875 C-0.146387 12.30734805 -0.10941654 9.30040582 -0.0625 5.3125 C-0.05347656 4.31863281 -0.04445313 3.32476562 -0.03515625 2.30078125 C-0.02355469 1.54152344 -0.01195312 0.78226562 0 0 Z " fill="#FBFCFD" transform="translate(447,364)"/>
<path d="M0 0 C1.20462891 0.00515625 2.40925781 0.0103125 3.65039062 0.015625 C12.5332865 0.0957865 12.5332865 0.0957865 13.6875 1.25 C13.78623816 3.24799572 13.81721799 5.24957158 13.8125 7.25 C13.81636719 8.8896875 13.81636719 8.8896875 13.8203125 10.5625 C13.6875 13.25 13.6875 13.25 12.6875 14.25 C11.05277118 14.33700342 9.41435945 14.35701063 7.77734375 14.34765625 C6.886521 14.34515869 5.99569824 14.34266113 5.07788086 14.34008789 C3.36870483 14.32643188 3.36870483 14.32643188 1.625 14.3125 C-1.984375 14.291875 -5.59375 14.27125 -9.3125 14.25 C-9.3125 24.48 -9.3125 34.71 -9.3125 45.25 C-13.6025 45.25 -17.8925 45.25 -22.3125 45.25 C-22.38681132 40.07221598 -22.44117808 34.89474431 -22.47729492 29.71655273 C-22.49235553 27.95608104 -22.51280826 26.1956467 -22.53881836 24.43530273 C-22.57532229 21.90078497 -22.59225354 19.36676448 -22.60546875 16.83203125 C-22.62869453 15.65674614 -22.62869453 15.65674614 -22.65238953 14.4577179 C-22.65379807 9.85532962 -22.17765145 6.90143627 -19.3125 3.25 C-13.66609581 -1.05737301 -6.75912564 -0.11761393 0 0 Z " fill="#000000" transform="translate(679.3125,390.75)"/>
<path d="M0 0 C4.29 0 8.58 0 13 0 C13 14.85 13 29.7 13 45 C8.71 45 4.42 45 0 45 C0 30.15 0 15.3 0 0 Z " fill="#000000" transform="translate(940,391)"/>
<path d="M0 0 C3.96 0 7.92 0 12 0 C13 1 13 1 13.12025452 2.79066467 C13.1169236 3.95981667 13.1169236 3.95981667 13.11352539 5.15258789 C13.11344986 6.03342545 13.11337433 6.914263 13.11329651 7.8217926 C13.10813522 8.77907761 13.10297394 9.73636261 13.09765625 10.72265625 C13.0962413 11.69786728 13.09482635 12.67307831 13.09336853 13.67784119 C13.08775133 16.80609143 13.07519593 19.93427123 13.0625 23.0625 C13.05748722 25.17773334 13.05292393 27.29296781 13.04882812 29.40820312 C13.03777631 34.60549607 13.02050016 39.80273608 13 45 C8.71 45 4.42 45 0 45 C0 30.15 0 15.3 0 0 Z " fill="#000000" transform="translate(796,391)"/>
<path d="M0 0 C7.42190531 4.71282972 10.98004215 15.70218755 13 24 C15.30573876 36.89923784 15.46810518 51.60461143 11 64 C10.6596875 64.99 10.319375 65.98 9.96875 67 C7.10906975 74.57428822 3.01706409 80.68627919 -2 87 C-2.65355469 87.85078125 -3.30710937 88.7015625 -3.98046875 89.578125 C-13.38008856 100.85039634 -28.76567868 108.20612306 -43 111 C-44.155 111.226875 -45.31 111.45375 -46.5 111.6875 C-54.36460459 112.38969684 -61.62232518 112.0659584 -69.375 110.625 C-70.05296631 110.49899414 -70.73093262 110.37298828 -71.42944336 110.24316406 C-75.13945051 109.50530275 -78.54212502 108.53534989 -82 107 C-82 106.67 -82 106.34 -82 106 C-77.49195346 105.69263319 -74.12934075 106.21540076 -69.8125 107.5625 C-54.03039443 111.72612082 -36.82436885 108.06066034 -22.8125 100.3125 C-8.23418677 91.80147322 1.43076717 79.65263301 7.1875 63.9375 C7.44724609 63.25623047 7.70699219 62.57496094 7.97460938 61.87304688 C13.51722232 46.96384772 11.59206649 31.82781774 7 17 C6.27418399 14.00899996 5.63410967 11.01202092 5 8 C4.34 8 3.68 8 3 8 C0.95830515 5.09451118 0 3.59857954 0 0 Z " fill="#9BD9FC" transform="translate(527,358)"/>
<path d="M0 0 C1.50046875 0.00386719 1.50046875 0.00386719 3.03125 0.0078125 C4.0315625 0.00523437 5.031875 0.00265625 6.0625 0 C8.53125 0.1328125 8.53125 0.1328125 9.53125 1.1328125 C9.67480117 5.13501903 9.57341403 9.12722933 9.53125 13.1328125 C5.24125 13.1328125 0.95125 13.1328125 -3.46875 13.1328125 C-3.56640625 3.85546875 -3.56640625 3.85546875 -3.46875 1.1328125 C-2.46875 0.1328125 -2.46875 0.1328125 0 0 Z " fill="#000000" transform="translate(943.46875,376.8671875)"/>
<path d="M0 0 C1.50046875 0.00386719 1.50046875 0.00386719 3.03125 0.0078125 C4.0315625 0.00523437 5.031875 0.00265625 6.0625 0 C8.53125 0.1328125 8.53125 0.1328125 9.53125 1.1328125 C9.67480117 5.13501903 9.57341403 9.12722933 9.53125 13.1328125 C5.24125 13.1328125 0.95125 13.1328125 -3.46875 13.1328125 C-3.56640625 3.85546875 -3.56640625 3.85546875 -3.46875 1.1328125 C-2.46875 0.1328125 -2.46875 0.1328125 0 0 Z " fill="#000000" transform="translate(799.46875,376.8671875)"/>
<path d="M0 0 C3 1 3 1 4.375 3.3125 C6.19131134 6.31639952 8.18448626 7.94543592 11 10 C10.43410156 10.48210937 9.86820312 10.96421875 9.28515625 11.4609375 C8.55167969 12.09257812 7.81820313 12.72421875 7.0625 13.375 C6.33160156 14.00148438 5.60070312 14.62796875 4.84765625 15.2734375 C2.91619094 16.87747714 2.91619094 16.87747714 2 19 C-1 18 -1 18 -2.9375 15.5625 C-4.91391935 13.10694869 -6.12464744 12.12960279 -9 11 C-9 10.34 -9 9.68 -9 9 C-8.2575 8.5875 -7.515 8.175 -6.75 7.75 C-3.44959074 5.64973956 -1.99378652 3.32297754 0 0 Z " fill="#E0B25E" transform="translate(445,381)"/>
<path d="M0 0 C7.42190531 4.71282972 10.98004215 15.70218755 13 24 C15.32627551 37.01412875 15.36873139 51.43989726 11 64 C10.67 64 10.34 64 10 64 C9.87435085 56.71234959 9.87435085 56.71234959 10.484375 53.25390625 C12.49327605 40.57652314 10.75448095 29.12324765 7 17 C6.27418399 14.00899996 5.63410967 11.01202092 5 8 C4.34 8 3.68 8 3 8 C0.95830515 5.09451118 0 3.59857954 0 0 Z " fill="#AACCFC" transform="translate(527,358)"/>
<path d="M0 0 C4.50804654 -0.30736681 7.87065925 0.21540076 12.1875 1.5625 C22.07441227 4.23497755 34.05523515 3.36877356 44 1 C43.67 1.99 43.34 2.98 43 4 C28.74389321 7.08836356 13.57833521 7.02899054 0 1 C0 0.67 0 0.34 0 0 Z " fill="#A3CAFD" transform="translate(445,464)"/>
<path d="M0 0 C0 3 0 3 -1.22167969 4.53051758 C-1.78274414 5.06314209 -2.34380859 5.5957666 -2.921875 6.14453125 C-3.53546875 6.73943359 -4.1490625 7.33433594 -4.78125 7.94726562 C-5.4309375 8.56279297 -6.080625 9.17832031 -6.75 9.8125 C-11.10116775 13.95583759 -14.87473699 17.84647286 -18 23 C-18.33 22.01 -18.66 21.02 -19 20 C-14.02692157 12.20159938 -7.01123746 5.92808178 0 0 Z " fill="#A06CFB" transform="translate(430,342)"/>
<path d="M0 0 C7.02591532 -0.47903968 14.66903428 0.83451714 21 4 C20.67 4.33 20.34 4.66 20 5 C13.0207496 4.94360202 6.56599751 3.22126299 0 1 C0 0.67 0 0.34 0 0 Z " fill="#95BCFC" transform="translate(445,464)"/>
<path d="M0 0 C3.4569079 2.23812627 4.98528992 4.36423412 6.75 8.0625 C7.17796875 8.94035156 7.6059375 9.81820313 8.046875 10.72265625 C9 13 9 13 9 15 C8.01 14.67 7.02 14.34 6 14 C5.67 12.02 5.34 10.04 5 8 C4.34 8 3.68 8 3 8 C0.95830515 5.09451118 0 3.59857954 0 0 Z " fill="#B5CBFB" transform="translate(527,358)"/>
<path d="M0 0 C3.49844386 0.63389235 5.84086876 2.05177694 8.75 4.0625 C9.94882812 4.88427734 9.94882812 4.88427734 11.171875 5.72265625 C12.07679688 6.35494141 12.07679688 6.35494141 13 7 C12.01 7.33 11.02 7.66 10 8 C7.51953125 6.6015625 7.51953125 6.6015625 4.8125 4.625 C3.91144531 3.97789062 3.01039063 3.33078125 2.08203125 2.6640625 C1.39496094 2.11492187 0.70789063 1.56578125 0 1 C0 0.67 0 0.34 0 0 Z " fill="#89A9FC" transform="translate(425,452)"/>
<path d="M0 0 C0.99 0.33 1.98 0.66 3 1 C0.42215154 3.64752004 -1.91648098 5.94432065 -5 8 C-5 5 -5 5 -2.5 2.3125 C-1.675 1.549375 -0.85 0.78625 0 0 Z " fill="#ABE0FC" transform="translate(521,445)"/>
<path d="M0 0 C0.66 0 1.32 0 2 0 C1.88601335 1.62580966 1.75844341 3.25067157 1.625 4.875 C1.52058594 6.23238281 1.52058594 6.23238281 1.4140625 7.6171875 C1 10 1 10 -1 12 C-1.14285714 3.42857143 -1.14285714 3.42857143 0 0 Z " fill="#B5DBFC" transform="translate(538,410)"/>
<path d="M0 0 C0.99 0.33 1.98 0.66 3 1 C1.86280581 4.41158256 0.95657056 5.11854601 -2 7 C-2.66 7 -3.32 7 -4 7 C-3.43628586 3.73045798 -2.50037734 2.17424117 0 0 Z " fill="#8A8AEE" transform="translate(453,392)"/>
<path d="M0 0 C1.98 0 3.96 0 6 0 C3.37801226 2.15377564 1.35595828 3.40072174 -2 4 C-1.34 2.68 -0.68 1.36 0 0 Z " fill="#A3DEFD" transform="translate(502,459)"/>
<path d="M0 0 C0.99 1.32 1.98 2.64 3 4 C2.34 5.32 1.68 6.64 1 8 C0.71125 7.38125 0.4225 6.7625 0.125 6.125 C-0.93720042 3.86674235 -0.93720042 3.86674235 -3 2 C-2.01 2 -1.02 2 0 2 C0 1.34 0 0.68 0 0 Z " fill="#9F89ED" transform="translate(448,378)"/>
</svg>
