<?xml version="1.0" encoding="UTF-8"?>
<svg version="1.1" xmlns="http://www.w3.org/2000/svg" width="1544" height="317">
<path d="M0 0 C21.92684043 16.94661169 34.58323732 38.34931645 39.03515625 65.65234375 C42.13685177 90.76784291 34.97670342 115.46692085 19.6640625 135.4140625 C3.4927168 154.56847197 -17.60614658 168.51480558 -43.16259766 171.0456543 C-68.32369658 172.97371782 -90.99111228 168.17746803 -111.5234375 153.2265625 C-112.50183594 152.515 -113.48023438 151.8034375 -114.48828125 151.0703125 C-126.04890546 142.12015182 -133.94644391 131.08627704 -140.5234375 118.2265625 C-141.24853516 116.81503906 -141.24853516 116.81503906 -141.98828125 115.375 C-152.23425276 93.2636329 -151.89387126 67.79976401 -144.2734375 45.0390625 C-139.99936602 33.82440929 -134.33232317 24.30741099 -126.5234375 15.2265625 C-126.03230469 14.60265625 -125.54117187 13.97875 -125.03515625 13.3359375 C-95.56488944 -23.52264972 -36.89632505 -25.93023463 0 0 Z " fill="#8792FD" transform="translate(423.5234375,80.7734375)"/>
<path d="M0 0 C1.46829797 0.00560424 2.93660161 0.00987042 4.40490723 0.01286316 C8.24531901 0.02424691 12.08538342 0.05365709 15.92565918 0.0869751 C19.85403751 0.11781664 23.78247267 0.13139841 27.7109375 0.14648438 C35.401199 0.17853408 43.09117559 0.22965055 50.78125 0.29296875 C50.83731552 2.51142644 50.87711277 4.73029874 50.91015625 6.94921875 C50.93408447 8.18478516 50.9580127 9.42035156 50.98266602 10.69335938 C50.59127833 17.68805027 47.49952722 23.02809768 42.40625 27.73046875 C36.86940982 32.29904377 31.13431564 33.66338912 24.09765625 33.8046875 C23.04710304 33.8316143 23.04710304 33.8316143 21.97532654 33.85908508 C19.76486011 33.9127443 17.55460388 33.94693807 15.34375 33.98046875 C13.83395539 34.01368132 12.32418837 34.04817456 10.81445312 34.08398438 C7.13692067 34.1684427 3.45931409 34.23546425 -0.21875 34.29296875 C-0.26555908 35.23906006 -0.31236816 36.18515137 -0.3605957 37.15991211 C-0.43366943 38.40909424 -0.50674316 39.65827637 -0.58203125 40.9453125 C-0.64946533 42.18015381 -0.71689941 43.41499512 -0.78637695 44.68725586 C-1.56241439 51.15890856 -4.17853108 56.80620611 -9.09375 61.16796875 C-10.125 61.86921875 -11.15625 62.57046875 -12.21875 63.29296875 C-13.1675 64.05609375 -14.11625 64.81921875 -15.09375 65.60546875 C-19.00583833 67.8304344 -23.11099651 67.48316125 -27.4765625 67.3984375 C-28.59333374 67.38701721 -28.59333374 67.38701721 -29.73266602 67.37536621 C-31.56145976 67.35556772 -33.39013496 67.32530418 -35.21875 67.29296875 C-35.34629127 60.6403467 -35.43340991 53.98804383 -35.4934082 47.33447266 C-35.51843909 45.07458718 -35.55247438 42.81478173 -35.59594727 40.55517578 C-35.65710233 37.29309256 -35.68507502 34.0320863 -35.70703125 30.76953125 C-35.73283768 29.7712027 -35.7586441 28.77287415 -35.78523254 27.74429321 C-35.78832026 19.89334486 -33.83294401 13.30791652 -28.49214172 7.37490845 C-20.31513147 -0.45946877 -10.6244041 -0.11969336 0 0 Z " fill="#FCFCFD" transform="translate(370.21875,148.70703125)"/>
<path d="M0 0 C9.735 -0.0825 19.47 -0.165 29.5 -0.25 C32.55958984 -0.28641602 35.61917969 -0.32283203 38.77148438 -0.36035156 C41.21223246 -0.37204036 43.65298836 -0.38223173 46.09375 -0.390625 C47.34833008 -0.41108887 48.60291016 -0.43155273 49.89550781 -0.45263672 C56.67579082 -0.45532944 62.53335954 -0.38862376 68 4 C71.65114658 8.18884512 72.50959687 11.22194822 72.53125 16.71875 C72.53898438 18.61173828 72.53898438 18.61173828 72.546875 20.54296875 C72.53140625 21.84878906 72.5159375 23.15460938 72.5 24.5 C72.52320313 26.45873047 72.52320313 26.45873047 72.546875 28.45703125 C72.54171875 29.71902344 72.5365625 30.98101562 72.53125 32.28125 C72.52673828 33.42658203 72.52222656 34.57191406 72.51757812 35.75195312 C71.76004666 40.50582039 69.52133615 43.66306823 65.9375 46.8125 C62.81997748 48.72323961 60.19443341 49.13363601 56.62036133 49.20532227 C55.73967484 49.22526749 54.85898834 49.24521271 53.95161438 49.26576233 C53.00465195 49.28247482 52.05768951 49.29918732 51.08203125 49.31640625 C50.10965012 49.33718735 49.13726898 49.35796844 48.13542175 49.37937927 C45.02785335 49.44478748 41.92020015 49.50371929 38.8125 49.5625 C36.70637142 49.60569351 34.60025144 49.64930807 32.49414062 49.69335938 C27.32951276 49.80125267 22.16482093 49.90039123 17 50 C16.67 57.26 16.34 64.52 16 72 C10.72 72 5.44 72 0 72 C0 48.24 0 24.48 0 0 Z M16 17 C16 22.28 16 27.56 16 33 C29.2 33 42.4 33 56 33 C56 27.72 56 22.44 56 17 C42.8 17 29.6 17 16 17 Z " fill="#000000" transform="translate(475,134)"/>
<path d="M0 0 C5.28 0 10.56 0 16 0 C16 25.41 16 50.82 16 77 C3.810625 77.12375 3.810625 77.12375 -8.625 77.25 C-11.18072754 77.28641602 -13.73645508 77.32283203 -16.36962891 77.36035156 C-18.4052649 77.37203882 -20.44091026 77.38223056 -22.4765625 77.390625 C-23.52545654 77.41108887 -24.57435059 77.43155273 -25.6550293 77.45263672 C-31.5889284 77.4554644 -35.44351317 77.22554864 -40 73 C-43.60476432 68.70943034 -43.45303087 64.54421617 -43.43359375 59.19140625 C-43.4388356 58.34706528 -43.44407745 57.5027243 -43.44947815 56.63279724 C-43.45588499 54.85180762 -43.45457869 53.07077562 -43.44604492 51.28979492 C-43.43753787 48.57458636 -43.46630831 45.86148518 -43.49804688 43.14648438 C-43.49965923 41.41145896 -43.4990807 39.67642984 -43.49609375 37.94140625 C-43.50732773 37.13498184 -43.51856171 36.32855743 -43.53013611 35.49769592 C-43.46510772 30.20016887 -42.47018919 27.22536827 -39 23 C-34.5150638 19.05869243 -30.46385934 18.85893451 -24.70703125 18.90234375 C-23.64798836 18.90446617 -23.64798836 18.90446617 -22.56755066 18.90663147 C-20.31582374 18.91222236 -18.06419679 18.92477312 -15.8125 18.9375 C-14.28450665 18.94251618 -12.75651173 18.94707888 -11.22851562 18.95117188 C-7.48560772 18.9613373 -3.74291557 18.98091431 0 19 C0 12.73 0 6.46 0 0 Z M-27 35 C-27 43.58 -27 52.16 -27 61 C-18.09 61 -9.18 61 0 61 C0 52.42 0 43.84 0 35 C-8.91 35 -17.82 35 -27 35 Z " fill="#000000" transform="translate(876,129)"/>
<path d="M0 0 C6.70772017 -0.09913075 13.41501066 -0.17159368 20.12329102 -0.21972656 C22.40364005 -0.2397992 24.68393789 -0.26706343 26.96411133 -0.30175781 C30.24833842 -0.35046609 33.53188292 -0.37301286 36.81640625 -0.390625 C37.83021866 -0.41127014 38.84403107 -0.43191528 39.88856506 -0.45318604 C46.14775225 -0.45515492 50.02602833 0.06603697 55 4 C59.54450417 9.77166743 59.53974993 14.79982722 59.390625 21.96484375 C59.38496521 22.99815323 59.37930542 24.03146271 59.37347412 25.09608459 C59.35119049 28.37703957 59.30100783 31.65687844 59.25 34.9375 C59.2299247 37.16990604 59.21167574 39.40232929 59.1953125 41.63476562 C59.15135214 47.09022071 59.08452043 52.54503059 59 58 C51.98922119 58.10157378 44.97863275 58.17153861 37.96728516 58.21972656 C35.58309843 58.23981893 33.19896085 58.26709781 30.81494141 58.30175781 C27.38431662 58.35037859 23.95434445 58.37299312 20.5234375 58.390625 C19.46071625 58.41127014 18.397995 58.43191528 17.30307007 58.45318604 C11.38520283 58.45497292 7.5435427 58.21354465 3 54 C-0.06083178 50.14789994 -0.35945329 47.24009049 -0.29296875 42.38671875 C-0.28547607 41.26225342 -0.2779834 40.13778809 -0.27026367 38.97924805 C-0.24295166 37.56297119 -0.21563965 36.14669434 -0.1875 34.6875 C-0.125625 30.170625 -0.06375 25.65375 0 21 C14.19 21 28.38 21 43 21 C43 19.35 43 17.7 43 16 C28.81 16 14.62 16 0 16 C0 10.72 0 5.44 0 0 Z M16 35 C16 37.31 16 39.62 16 42 C24.91 42 33.82 42 43 42 C43 39.69 43 37.38 43 35 C34.09 35 25.18 35 16 35 Z " fill="#000000" transform="translate(1103,148)"/>
<path d="M0 0 C0.79757721 -0.0066568 1.59515442 -0.0133136 2.41690063 -0.02017212 C4.09952499 -0.03026865 5.78218914 -0.03499007 7.46484375 -0.03466797 C10.02411655 -0.03903699 12.58165738 -0.07537427 15.140625 -0.11328125 C16.78124415 -0.11915112 18.42187143 -0.12311937 20.0625 -0.125 C20.82001556 -0.13937103 21.57753113 -0.15374207 22.35800171 -0.16854858 C27.89102434 -0.12153009 31.11828611 1.14455583 35.6640625 4.3359375 C40.94938343 10.07752117 40.12915291 18.05712586 39.9140625 25.3359375 C39.8315625 29.2959375 39.7490625 33.2559375 39.6640625 37.3359375 C25.4740625 37.3359375 11.2840625 37.3359375 -3.3359375 37.3359375 C-3.3359375 38.9859375 -3.3359375 40.6359375 -3.3359375 42.3359375 C10.8540625 42.3359375 25.0440625 42.3359375 39.6640625 42.3359375 C39.6640625 47.6159375 39.6640625 52.8959375 39.6640625 58.3359375 C32.65319929 58.43495023 25.64274477 58.50747577 18.63134766 58.55566406 C16.24716093 58.57575643 13.86302335 58.60303531 11.47900391 58.63769531 C8.04837912 58.68631609 4.61840695 58.70893062 1.1875 58.7265625 C0.12477875 58.74720764 -0.9379425 58.76785278 -2.03286743 58.78912354 C-7.95073467 58.79091042 -11.7923948 58.54948215 -16.3359375 54.3359375 C-19.96858826 50.02447993 -19.81809441 45.73266652 -19.83984375 40.34375 C-19.84982895 39.47958466 -19.85981415 38.61541931 -19.87010193 37.72506714 C-19.8852534 35.90123262 -19.89232864 34.07731536 -19.8918457 32.25341797 C-19.89840163 29.47613208 -19.95289323 26.70243418 -20.00976562 23.92578125 C-20.01857005 22.14844965 -20.02452269 20.37110117 -20.02734375 18.59375 C-20.0489003 17.7706131 -20.07045685 16.9474762 -20.09266663 16.09939575 C-20.02844097 10.642843 -18.8023375 7.61067395 -14.94703674 3.70056152 C-10.44502941 -0.11270286 -5.66846908 0.01656592 0 0 Z M-3.3359375 16.3359375 C-3.3359375 18.6459375 -3.3359375 20.9559375 -3.3359375 23.3359375 C5.5740625 23.3359375 14.4840625 23.3359375 23.6640625 23.3359375 C23.6640625 21.0259375 23.6640625 18.7159375 23.6640625 16.3359375 C14.7540625 16.3359375 5.8440625 16.3359375 -3.3359375 16.3359375 Z " fill="#000000" transform="translate(1324.3359375,147.6640625)"/>
<path d="M0 0 C0.79757721 -0.0066568 1.59515442 -0.0133136 2.41690063 -0.02017212 C4.09952499 -0.03026865 5.78218914 -0.03499007 7.46484375 -0.03466797 C10.02411655 -0.03903699 12.58165738 -0.07537427 15.140625 -0.11328125 C16.78124415 -0.11915112 18.42187143 -0.12311937 20.0625 -0.125 C20.82001556 -0.13937103 21.57753113 -0.15374207 22.35800171 -0.16854858 C27.89102434 -0.12153009 31.11828611 1.14455583 35.6640625 4.3359375 C40.94938343 10.07752117 40.12915291 18.05712586 39.9140625 25.3359375 C39.8315625 29.2959375 39.7490625 33.2559375 39.6640625 37.3359375 C25.4740625 37.3359375 11.2840625 37.3359375 -3.3359375 37.3359375 C-3.3359375 38.9859375 -3.3359375 40.6359375 -3.3359375 42.3359375 C10.8540625 42.3359375 25.0440625 42.3359375 39.6640625 42.3359375 C39.6640625 47.6159375 39.6640625 52.8959375 39.6640625 58.3359375 C32.65319929 58.43495023 25.64274477 58.50747577 18.63134766 58.55566406 C16.24716093 58.57575643 13.86302335 58.60303531 11.47900391 58.63769531 C8.04837912 58.68631609 4.61840695 58.70893062 1.1875 58.7265625 C0.12477875 58.74720764 -0.9379425 58.76785278 -2.03286743 58.78912354 C-7.95073467 58.79091042 -11.7923948 58.54948215 -16.3359375 54.3359375 C-19.96858826 50.02447993 -19.81809441 45.73266652 -19.83984375 40.34375 C-19.84982895 39.47958466 -19.85981415 38.61541931 -19.87010193 37.72506714 C-19.8852534 35.90123262 -19.89232864 34.07731536 -19.8918457 32.25341797 C-19.89840163 29.47613208 -19.95289323 26.70243418 -20.00976562 23.92578125 C-20.01857005 22.14844965 -20.02452269 20.37110117 -20.02734375 18.59375 C-20.0489003 17.7706131 -20.07045685 16.9474762 -20.09266663 16.09939575 C-20.02844097 10.642843 -18.8023375 7.61067395 -14.94703674 3.70056152 C-10.44502941 -0.11270286 -5.66846908 0.01656592 0 0 Z M-3.3359375 16.3359375 C-3.3359375 18.6459375 -3.3359375 20.9559375 -3.3359375 23.3359375 C5.5740625 23.3359375 14.4840625 23.3359375 23.6640625 23.3359375 C23.6640625 21.0259375 23.6640625 18.7159375 23.6640625 16.3359375 C14.7540625 16.3359375 5.8440625 16.3359375 -3.3359375 16.3359375 Z " fill="#000000" transform="translate(762.3359375,147.6640625)"/>
<path d="M0 0 C0.79757721 -0.0066568 1.59515442 -0.0133136 2.41690063 -0.02017212 C4.09952499 -0.03026865 5.78218914 -0.03499007 7.46484375 -0.03466797 C10.02411655 -0.03903699 12.58165738 -0.07537427 15.140625 -0.11328125 C16.78124415 -0.11915112 18.42187143 -0.12311937 20.0625 -0.125 C20.82001556 -0.13937103 21.57753113 -0.15374207 22.35800171 -0.16854858 C27.89102434 -0.12153009 31.11828611 1.14455583 35.6640625 4.3359375 C40.94938343 10.07752117 40.12915291 18.05712586 39.9140625 25.3359375 C39.8315625 29.2959375 39.7490625 33.2559375 39.6640625 37.3359375 C25.4740625 37.3359375 11.2840625 37.3359375 -3.3359375 37.3359375 C-3.3359375 38.9859375 -3.3359375 40.6359375 -3.3359375 42.3359375 C10.8540625 42.3359375 25.0440625 42.3359375 39.6640625 42.3359375 C39.6640625 47.6159375 39.6640625 52.8959375 39.6640625 58.3359375 C32.65319929 58.43495023 25.64274477 58.50747577 18.63134766 58.55566406 C16.24716093 58.57575643 13.86302335 58.60303531 11.47900391 58.63769531 C8.04837912 58.68631609 4.61840695 58.70893062 1.1875 58.7265625 C0.12477875 58.74720764 -0.9379425 58.76785278 -2.03286743 58.78912354 C-7.95073467 58.79091042 -11.7923948 58.54948215 -16.3359375 54.3359375 C-19.96858826 50.02447993 -19.81809441 45.73266652 -19.83984375 40.34375 C-19.84982895 39.47958466 -19.85981415 38.61541931 -19.87010193 37.72506714 C-19.8852534 35.90123262 -19.89232864 34.07731536 -19.8918457 32.25341797 C-19.89840163 29.47613208 -19.95289323 26.70243418 -20.00976562 23.92578125 C-20.01857005 22.14844965 -20.02452269 20.37110117 -20.02734375 18.59375 C-20.0489003 17.7706131 -20.07045685 16.9474762 -20.09266663 16.09939575 C-20.02844097 10.642843 -18.8023375 7.61067395 -14.94703674 3.70056152 C-10.44502941 -0.11270286 -5.66846908 0.01656592 0 0 Z M-3.3359375 16.3359375 C-3.3359375 18.6459375 -3.3359375 20.9559375 -3.3359375 23.3359375 C5.5740625 23.3359375 14.4840625 23.3359375 23.6640625 23.3359375 C23.6640625 21.0259375 23.6640625 18.7159375 23.6640625 16.3359375 C14.7540625 16.3359375 5.8440625 16.3359375 -3.3359375 16.3359375 Z " fill="#000000" transform="translate(573.3359375,147.6640625)"/>
<path d="M0 0 C0.79711899 -0.00145523 1.59423798 -0.00291046 2.41551208 -0.00440979 C4.09044066 -0.00275907 5.76538572 0.00870897 7.44018555 0.02954102 C9.9926843 0.058555 12.54310935 0.05012154 15.09570312 0.03710938 C16.73047876 0.04334634 18.3652479 0.05173696 20 0.0625 C21.13460411 0.05809654 21.13460411 0.05809654 22.29212952 0.05360413 C28.68275728 0.16654475 32.60421705 1.78867549 37.24609375 6.12109375 C40.23917325 9.92000235 40.21920789 13.77960492 40.43359375 18.49609375 C34.82359375 18.49609375 29.21359375 18.49609375 23.43359375 18.49609375 C23.43359375 17.83609375 23.43359375 17.17609375 23.43359375 16.49609375 C14.52359375 16.49609375 5.61359375 16.49609375 -3.56640625 16.49609375 C-3.56640625 18.14609375 -3.56640625 19.79609375 -3.56640625 21.49609375 C-2.62845215 21.4803833 -1.69049805 21.46467285 -0.72412109 21.44848633 C2.7759358 21.3971741 6.27558945 21.35965503 9.77587891 21.33129883 C11.28701102 21.31626832 12.79809993 21.29583811 14.30908203 21.26977539 C16.48871562 21.23313686 18.6677695 21.21631037 20.84765625 21.203125 C22.15686035 21.18741455 23.46606445 21.1717041 24.81494141 21.15551758 C29.33285721 21.5807296 32.64603286 22.94206219 36.078125 25.92578125 C40.9514781 31.95635197 41.06263798 37.98187444 40.43359375 45.49609375 C39.46545033 49.95565203 38.20060703 52.76649575 34.87109375 55.93359375 C28.49732399 60.01934359 20.5363237 58.83903325 13.15014648 58.90112305 C11.22288053 58.92267213 9.29571163 58.9567384 7.36889648 59.00366211 C4.58403 59.07085087 1.80118901 59.09815432 -0.984375 59.1171875 C-1.83879684 59.14501816 -2.69321869 59.17284882 -3.5735321 59.20152283 C-9.23390542 59.18222638 -12.13319037 57.94660992 -16.23164368 54.02479553 C-20.09587609 49.59909534 -19.56640625 46.5060739 -19.56640625 40.49609375 C-14.28640625 40.49609375 -9.00640625 40.49609375 -3.56640625 40.49609375 C-3.56640625 41.15609375 -3.56640625 41.81609375 -3.56640625 42.49609375 C5.34359375 42.49609375 14.25359375 42.49609375 23.43359375 42.49609375 C23.43359375 40.84609375 23.43359375 39.19609375 23.43359375 37.49609375 C21.98122314 37.52751465 21.98122314 37.52751465 20.49951172 37.55957031 C16.8878473 37.63227887 13.27624684 37.67800431 9.6640625 37.71582031 C8.10438131 37.73586597 6.54477462 37.76311032 4.98535156 37.79785156 C2.73614061 37.84668501 0.48792785 37.8691319 -1.76171875 37.88671875 C-2.79801926 37.91768646 -2.79801926 37.91768646 -3.85525513 37.94927979 C-8.89630148 37.95158658 -11.66969894 36.61954707 -15.56640625 33.49609375 C-20.21786002 28.20306015 -19.90979226 22.8014485 -19.83984375 16.0234375 C-19.4911819 11.52569966 -18.71777854 7.82912409 -15.56640625 4.49609375 C-10.18522976 0.85472516 -6.43301982 -0.0957986 0 0 Z " fill="#000000" transform="translate(694.56640625,147.50390625)"/>
<path d="M0 0 C22.11 0 44.22 0 67 0 C67 5.61 67 11.22 67 17 C50.5 17 34 17 17 17 C17 20.63 17 24.26 17 28 C30.2 28 43.4 28 57 28 C57 33.61 57 39.22 57 45 C43.8 45 30.6 45 17 45 C17 53.91 17 62.82 17 72 C11.39 72 5.78 72 0 72 C0 48.24 0 24.48 0 0 Z " fill="#000000" transform="translate(935,134)"/>
<path d="M0 0 C8.54561132 -0.13971199 17.09073664 -0.24597735 25.6372118 -0.31087303 C29.60678075 -0.34203779 33.575562 -0.38423202 37.54467773 -0.45263672 C41.38324787 -0.51836908 45.22106588 -0.55381742 49.06015587 -0.56926346 C50.51650504 -0.58025445 51.97281826 -0.60171532 53.42884254 -0.63438034 C62.80393507 -0.83612465 70.38219928 0.02914146 78 6 C83.72496134 12.53458416 86.10339371 19.04184946 86.0390625 27.7265625 C86.03342285 28.71479004 86.0277832 29.70301758 86.02197266 30.72119141 C86.01109619 31.84920166 86.01109619 31.84920166 86 33 C77.41977706 33.09301169 68.83976762 33.1639218 60.25916386 33.20724869 C56.27407482 33.22805198 52.28933276 33.25623497 48.30444336 33.30175781 C44.45295783 33.34547727 40.60180433 33.36919159 36.75008965 33.37950897 C35.28657244 33.38685389 33.82307174 33.40119607 32.35969734 33.42292023 C22.63798422 33.5613958 14.85271638 33.09784938 7.1875 26.625 C1.78281441 20.13937729 -0.16399969 15.67451321 -0.0625 7.3125 C-0.05798828 6.61060547 -0.05347656 5.90871094 -0.04882812 5.18554688 C-0.03706927 3.45699462 -0.01913454 1.72848635 0 0 Z " fill="#FCFCFD" transform="translate(336,110)"/>
<path d="M0 0 C7.79625 -0.061875 15.5925 -0.12375 23.625 -0.1875 C27.30197021 -0.22846802 27.30197021 -0.22846802 31.05322266 -0.27026367 C33.00683093 -0.27902956 34.9604447 -0.28667326 36.9140625 -0.29296875 C37.91977295 -0.30831665 38.9254834 -0.32366455 39.96166992 -0.33947754 C45.40210144 -0.34150302 49.32737624 -0.12175193 54 3 C57.78896414 7.09617745 59.1283499 10.12548593 59.11352539 15.6550293 C59.11344986 16.59577805 59.11337433 17.53652679 59.11329651 18.50578308 C59.10813522 19.51836685 59.10297394 20.53095062 59.09765625 21.57421875 C59.0962413 22.61318802 59.09482635 23.65215729 59.09336853 24.72261047 C59.08776656 28.04426948 59.07521372 31.36586133 59.0625 34.6875 C59.05748525 36.93815007 59.0529223 39.18880119 59.04882812 41.43945312 C59.03779648 46.95966133 59.02053051 52.47981928 59 58 C53.72 58 48.44 58 43 58 C43 44.14 43 30.28 43 16 C34.09 16 25.18 16 16 16 C16 29.86 16 43.72 16 58 C10.72 58 5.44 58 0 58 C0 38.86 0 19.72 0 0 Z " fill="#000000" transform="translate(1171,148)"/>
<path d="M0 0 C7.79625 -0.061875 15.5925 -0.12375 23.625 -0.1875 C27.30197021 -0.22846802 27.30197021 -0.22846802 31.05322266 -0.27026367 C33.00683093 -0.27902956 34.9604447 -0.28667326 36.9140625 -0.29296875 C37.91977295 -0.30831665 38.9254834 -0.32366455 39.96166992 -0.33947754 C45.40210144 -0.34150302 49.32737624 -0.12175193 54 3 C57.78896414 7.09617745 59.1283499 10.12548593 59.11352539 15.6550293 C59.11344986 16.59577805 59.11337433 17.53652679 59.11329651 18.50578308 C59.10813522 19.51836685 59.10297394 20.53095062 59.09765625 21.57421875 C59.0962413 22.61318802 59.09482635 23.65215729 59.09336853 24.72261047 C59.08776656 28.04426948 59.07521372 31.36586133 59.0625 34.6875 C59.05748525 36.93815007 59.0529223 39.18880119 59.04882812 41.43945312 C59.03779648 46.95966133 59.02053051 52.47981928 59 58 C53.72 58 48.44 58 43 58 C43 44.14 43 30.28 43 16 C34.09 16 25.18 16 16 16 C16 29.86 16 43.72 16 58 C10.72 58 5.44 58 0 58 C0 38.86 0 19.72 0 0 Z " fill="#000000" transform="translate(1033,148)"/>
<path d="M0 0 C0.96061844 0.00015106 1.92123688 0.00030212 2.91096497 0.00045776 C3.93509995 0.01078033 4.95923492 0.02110291 6.0144043 0.03173828 C7.60190742 0.03598312 7.60190742 0.03598312 9.22148132 0.04031372 C12.59397803 0.05148789 15.96620692 0.07658771 19.33862305 0.10205078 C21.62833275 0.11208414 23.91804662 0.12120937 26.20776367 0.12939453 C31.81398629 0.15141823 37.42000929 0.18592937 43.02612305 0.22705078 C43.02612305 5.50705078 43.02612305 10.78705078 43.02612305 16.22705078 C28.83612305 16.22705078 14.64612305 16.22705078 0.02612305 16.22705078 C0.02612305 24.80705078 0.02612305 33.38705078 0.02612305 42.22705078 C14.21612305 42.22705078 28.40612305 42.22705078 43.02612305 42.22705078 C43.02612305 47.50705078 43.02612305 52.78705078 43.02612305 58.22705078 C36.01525984 58.32606352 29.00480532 58.39858905 21.9934082 58.44677734 C19.60922148 58.46686972 17.2250839 58.49414859 14.84106445 58.52880859 C11.41043967 58.57742937 7.98046749 58.6000439 4.54956055 58.61767578 C3.48683929 58.63832092 2.42411804 58.65896606 1.32919312 58.68023682 C-4.58867412 58.6820237 -8.43033425 58.44059543 -12.97387695 54.22705078 C-16.60652771 49.91559321 -16.45603386 45.6237798 -16.4777832 40.23486328 C-16.4877684 39.37069794 -16.4977536 38.50653259 -16.50804138 37.61618042 C-16.52319286 35.7923459 -16.53026809 33.96842864 -16.52978516 32.14453125 C-16.53634109 29.36724536 -16.59083269 26.59354746 -16.64770508 23.81689453 C-16.6565095 22.03956293 -16.66246214 20.26221445 -16.6652832 18.48486328 C-16.68683975 17.66172638 -16.7083963 16.83858948 -16.73060608 15.99050903 C-16.66665667 10.55742614 -15.3999476 7.65052234 -11.75035095 3.62814331 C-8.0982477 0.7477552 -4.57461523 -0.02414045 0 0 Z " fill="#000000" transform="translate(1253.973876953125,147.77294921875)"/>
<path d="M0 0 C1.19221916 0.00212242 1.19221916 0.00212242 2.40852356 0.00428772 C4.9455645 0.00988247 7.482517 0.02243397 10.01953125 0.03515625 C11.7402331 0.04017193 13.46093633 0.04473472 15.18164062 0.04882812 C19.39849894 0.05899903 23.61516616 0.07857541 27.83203125 0.09765625 C27.83203125 5.37765625 27.83203125 10.65765625 27.83203125 16.09765625 C17.60203125 16.09765625 7.37203125 16.09765625 -3.16796875 16.09765625 C-3.16796875 29.95765625 -3.16796875 43.81765625 -3.16796875 58.09765625 C-8.44796875 58.09765625 -13.72796875 58.09765625 -19.16796875 58.09765625 C-19.2670042 51.37162552 -19.33951749 44.64602125 -19.38769531 37.91943359 C-19.40778392 35.63224899 -19.43506003 33.34511557 -19.46972656 31.05810547 C-19.51836433 27.76647291 -19.54096554 24.47552068 -19.55859375 21.18359375 C-19.57923889 20.16462006 -19.59988403 19.14564636 -19.62115479 18.09579468 C-19.62304573 12.08391765 -19.15685777 8.68534137 -15.16796875 4.09765625 C-10.44350255 -0.05414738 -6.04617063 -0.04042375 0 0 Z " fill="#000000" transform="translate(641.16796875,147.90234375)"/>
<path d="M0 0 C5.28 0 10.56 0 16 0 C16 19.14 16 38.28 16 58 C10.72 58 5.44 58 0 58 C0 38.86 0 19.72 0 0 Z " fill="#000000" transform="translate(1007,148)"/>
<path d="M0 0 C5.28 0 10.56 0 16 0 C16 19.14 16 38.28 16 58 C10.72 58 5.44 58 0 58 C0 38.86 0 19.72 0 0 Z " fill="#000000" transform="translate(811,148)"/>
<path d="M0 0 C0.99 0.33 1.98 0.66 3 1 C3.556875 2.3303125 3.556875 2.3303125 4.125 3.6875 C6.74620129 8.31828895 10.49658367 10.33760292 15 13 C12.77263115 15.30417467 10.40677576 17.33496283 7.9375 19.375 C4.89998132 22.00008495 2.97463685 23.97962299 2 28 C1.34 28 0.68 28 0 28 C-0.27972656 27.39671875 -0.55945313 26.7934375 -0.84765625 26.171875 C-3.7606661 20.36458849 -6.06271824 17.67759766 -12 15 C-12 14.34 -12 13.68 -12 13 C-11.13375 12.484375 -10.2675 11.96875 -9.375 11.4375 C-4.95316186 8.68964344 -2.63446826 4.37209627 0 0 Z " fill="#E4B558" transform="translate(333,133)"/>
<path d="M0 0 C5.28 0 10.56 0 16 0 C16 5.61 16 11.22 16 17 C10.72 17 5.44 17 0 17 C0 11.39 0 5.78 0 0 Z " fill="#000000" transform="translate(1007,129)"/>
<path d="M0 0 C5.28 0 10.56 0 16 0 C16 5.61 16 11.22 16 17 C10.72 17 5.44 17 0 17 C0 11.39 0 5.78 0 0 Z " fill="#000000" transform="translate(811,129)"/>
<path d="M0 0 C0.66 0.33 1.32 0.66 2 1 C-3.61 6.61 -9.22 12.22 -15 18 C-15 12.78391019 -10.50427167 9.58349868 -7 6 C-4.72395669 3.90689101 -2.40160434 1.95130352 0 0 Z " fill="#B686FC" transform="translate(310,83)"/>
</svg>
