<svg width="33" height="32" viewBox="0 0 33 32" fill="none" xmlns="http://www.w3.org/2000/svg">
<rect x="0.5" width="32" height="32" rx="16" fill="#3F8DE5"/>
<path d="M14.2188 19.4292L20.1689 16.0022L14.2188 12.5752V19.4292Z" fill="#3F8DE5"/>
<path d="M23.0764 10.1635C21.873 9.62113 20.5701 9.22748 19.213 9.00004C19.2011 8.99967 19.1892 9.00183 19.1783 9.00637C19.1673 9.0109 19.1576 9.0177 19.1496 9.02628C18.9868 9.31496 18.7968 9.69111 18.6701 9.97978C17.2306 9.76984 15.7666 9.76984 14.3271 9.97978C14.2004 9.68236 14.0104 9.31496 13.8385 9.02628C13.8295 9.00879 13.8023 9.00004 13.7752 9.00004C12.418 9.22748 11.1242 9.62113 9.91175 10.1635C9.9027 10.1635 9.89366 10.1722 9.88461 10.181C7.42359 13.7413 6.745 17.2054 7.07977 20.6345C7.07977 20.652 7.08882 20.6695 7.10691 20.6782C8.73553 21.8329 10.3008 22.5327 11.848 22.9964C11.8751 23.0051 11.9023 22.9964 11.9113 22.9789C12.2732 22.4978 12.599 21.9904 12.8795 21.4568C12.8975 21.4218 12.8795 21.3868 12.8433 21.378C12.3275 21.1856 11.8389 20.9582 11.3594 20.6957C11.3232 20.6782 11.3232 20.6257 11.3504 20.5995C11.4499 20.5295 11.5494 20.4508 11.6489 20.3808C11.667 20.3633 11.6942 20.3633 11.7123 20.3721C14.8247 21.7455 18.1815 21.7455 21.2578 20.3721C21.2759 20.3633 21.303 20.3633 21.3211 20.3808C21.4206 20.4595 21.5202 20.5295 21.6197 20.6083C21.6559 20.6345 21.6559 20.687 21.6106 20.7045C21.1402 20.9757 20.6425 21.1943 20.1268 21.3868C20.0906 21.3955 20.0816 21.4393 20.0906 21.4655C20.3801 21.9991 20.7059 22.5065 21.0587 22.9876C21.0859 22.9964 21.113 23.0051 21.1402 22.9964C22.6964 22.5327 24.2617 21.8329 25.8903 20.6782C25.9084 20.6695 25.9174 20.652 25.9174 20.6345C26.3155 16.6718 25.2569 13.2339 23.1126 10.181C23.1035 10.1722 23.0945 10.1635 23.0764 10.1635ZM13.3499 18.5438C12.418 18.5438 11.6399 17.7128 11.6399 16.6893C11.6399 15.6658 12.3999 14.8348 13.3499 14.8348C14.309 14.8348 15.069 15.6745 15.06 16.6893C15.06 17.7128 14.3 18.5438 13.3499 18.5438ZM19.6563 18.5438C18.7244 18.5438 17.9463 17.7128 17.9463 16.6893C17.9463 15.6658 18.7063 14.8348 19.6563 14.8348C20.6154 14.8348 21.3754 15.6745 21.3664 16.6893C21.3664 17.7128 20.6154 18.5438 19.6563 18.5438Z" fill="white"/>
</svg>
